<svg xmlns="http://www.w3.org/2000/svg" width="720" height="390" viewBox="0 0 720 390" role="img" aria-label="TrendForge-Telegram-Bot repository file mix chart">
<style>.title{font:700 24px system-ui,-apple-system,Segoe UI,sans-serif;fill:#111827}.sub{font:14px system-ui;fill:#6b7280}.label{font:600 14px ui-monospace,Menlo,monospace;fill:#374151}.value{font:700 13px system-ui;fill:#111827}.card{fill:#ffffff;stroke:#e5e7eb;stroke-width:1.2}.stat{font:700 28px system-ui;fill:#111827}.statl{font:13px system-ui;fill:#6b7280}</style>
<rect class="card" x="10" y="10" width="700" height="370" rx="22"/>
<text x="34" y="48" class="title">Repository Snapshot</text><text x="34" y="72" class="sub">Generated from real files in TrendForge-Telegram-Bot</text>
<text x="34" y="109" class="label">.js</text><rect x="110" y="92" width="390" height="20" rx="6" fill="#2563eb"/><text x="510" y="107" class="value">18</text><text x="34" y="143" class="label">.md</text><rect x="110" y="126" width="216" height="20" rx="6" fill="#7c3aed"/><text x="336" y="141" class="value">10</text><text x="34" y="177" class="label">.json</text><rect x="110" y="160" width="65" height="20" rx="6" fill="#059669"/><text x="185" y="175" class="value">3</text><text x="34" y="211" class="label">other</text><rect x="110" y="194" width="21" height="20" rx="6" fill="#f59e0b"/><text x="141" y="209" class="value">1</text><text x="34" y="245" class="label">.jpg</text><rect x="110" y="228" width="21" height="20" rx="6" fill="#ef4444"/><text x="141" y="243" class="value">1</text>
<rect x="34" y="336" width="190" height="1" fill="#e5e7eb"/><text x="34" y="368" class="stat">33</text><text x="90" y="368" class="statl">tracked source/doc files</text>
<rect x="390" y="336" width="190" height="1" fill="#e5e7eb"/><text x="390" y="368" class="stat">1</text><text x="440" y="368" class="statl">test/spec-related files</text></svg>